<svg xmlns="http://www.w3.org/2000/svg" viewBox="0 0 154.47 153.86"><defs><style>.cls-1{fill:#9924c0;}.cls-2{fill:#e9e9e9;}.cls-3{fill:#9a26c0;}.cls-4{fill:#b5b4b6;}.cls-5{fill:#fcfcfd;}.cls-6{fill:#c8c7c8;}.cls-7{fill:#868587;}.cls-8{fill:#bebebf;}.cls-9{fill:#5f5d61;}.cls-10{fill:#e5e5e5;}.cls-11{fill:#5d5a5e;}.cls-12{fill:#888889;}.cls-13{fill:#dcdbdd;}.cls-14{fill:#675e6b;}.cls-15{fill:#928e93;}.cls-16{fill:#6c686d;}.cls-17{fill:#79767b;}</style></defs><title>Recurso 2</title><g id="Capa_2" data-name="Capa 2"><g id="Capa_1-2" data-name="Capa 1"><path class="cls-1" d="M2.23,63.07C4.6,49.41,9.5,36.86,18.52,26.14A72.47,72.47,0,0,1,115.66,13l4.5,3.11c.7,1.72-.68,2.47-1.61,3.43-.73.54-1.51,1-2.21,1.6Q95.25,36.43,74.79,52.55a3.55,3.55,0,0,1-2.64.87c-4.32-3.32-7.38-7.81-11-11.81-1.21-1.34-2.36-2.72-3.66-4a30.63,30.63,0,0,0-8.85-6.94c-1-.52-2.15-1.21-3.22-.36s-.56,2.11-.35,3.23A22.91,22.91,0,0,0,47,39.13c5.41,13.34,11.73,26.15,21.48,37,1.72,1.28,2.59,4.21,5.64,2.86A54.31,54.31,0,0,0,87.79,68.18C99.07,56.44,110,44.37,120.34,31.76a35.14,35.14,0,0,0,4.31-5.19,6.5,6.5,0,0,1,2.87-2.06c3.08-.23,4,2.41,5.62,4.18A62.84,62.84,0,0,1,144.4,49.84c1.63,7.6,3.84,15.12,3.15,23C147.61,83,145,92.63,141.23,102c-9.79,19.93-24.94,33.65-46.39,40.1A72.79,72.79,0,0,1,52.7,142c-13-3.94-23.73-11.57-33.29-21C12,113.35,8.06,103.67,3.94,94.09.4,83.91,1,73.51,2.23,63.07Z"/><path class="cls-2" d="M2.23,63.07c-.49,10.75,0,21.41,3.1,31.81,4.49,15.62,12.83,28.93,25.59,38.87,23.24,18.11,49.16,21.47,76,9.92,24.16-10.37,38.23-29.63,42.78-55.6,3.43-19.56-2-37.16-12.41-53.55-3-4.69-3-6.75.39-11.19.6-.8,1.28-1.53,1.87-2.33,4-5.46,4-6.46,0-11.65-.27-1.52.1-2.71,1.68-3.26,6.46,2.3,8.19,6.66,4.34,12.18-9.28,13.32-7.63,9.07-.41,22.91,13.18,25.27,12.2,50.54-1.87,75-11.67,20.27-29.93,32.35-52.73,36.4-24.77,4.39-46.9-2.33-65.64-19.36C10.83,120.4,2.88,104.3.48,85.59A53.26,53.26,0,0,1,2.23,63.07Z"/><path class="cls-3" d="M141.23,6.09c-.38,1-.77,2-1.16,2.93-.45,1.2-.33,2.62-1.38,3.59-1.39,1.66-2.55,3.49-3.91,5.17a43.51,43.51,0,0,1-5.65,6.69,5.32,5.32,0,0,1-2.14,0c-2.63-2.32-6.73-3.6-5.9-8.36C126,13,130.89,9.83,135.94,7,137.43,6.12,139.13,4.2,141.23,6.09Z"/><path class="cls-4" d="M121.09,16.06c.77,3.63,4.58,4.89,6.13,7.91.53.4.51.77,0,1.12l-1.88,2.14c-4-.26-6.77,2.09-9.69,4.27A44.55,44.55,0,0,1,108.54,36c-1.75.47-3.17,2.26-5.27,1.33-1-2.4,1.1-3.18,2.38-4.29,3.26-2.84,7.15-4.84,10.3-7.86,1.85-1.78,2.74-3.69,2.12-6.21l2.09-2.89A1.42,1.42,0,0,1,121.09,16.06Z"/><path class="cls-5" d="M121.26,32.21C108.94,47.43,96,62.11,81.6,75.39a35.71,35.71,0,0,1-7.33,4.88c-4.77-2-6.77-6.62-9.4-10.53A111.78,111.78,0,0,1,53.26,47.9c-.81-2.08-1.64-4.26.6-5.82s3.7.25,5.14,1.58a36,36,0,0,1,3.77,3.94c1.95,3.13,4.64,5.65,7.18,8.25,3.81,3.9,8,4.14,12.46.75,9.67-7.3,19.24-14.73,29-22a26.37,26.37,0,0,1,5.86-3.74C118.76,30.3,120.75,29.28,121.26,32.21Z"/><path class="cls-6" d="M138,12l2.08-3c5,2.93,6.23,6.06,2.05,10.24-7.22,7.22-5.1,12.8-.41,20.58,15.82,26.26,13.1,59-6.33,83.79-20.43,26-59.06,35-89,21.07-20-9.29-33.19-24.29-40.32-44.95a10.43,10.43,0,0,1-.68-4.87c3.48,7.6,7,15.18,11.82,22.07a12.53,12.53,0,0,0,2.9,3.29c10,11.26,21.83,20,36.41,24.32C99.17,157.37,140.68,128.5,146.93,89,149.08,75.36,148.08,62,143.05,49A90.89,90.89,0,0,0,132.2,29c-1.29-1.92.22-3.09,1.24-4.29a51.18,51.18,0,0,1,3.48-4.21C139.69,17.87,139.38,15.08,138,12Z"/><path class="cls-7" d="M143.05,49c4.41,6.39,5.46,13.9,5.95,21.23,2.57,38.45-20.15,69.33-57.91,77.16-28.27,5.86-51.85-3.86-70.49-25.73a4.67,4.67,0,0,1-.54-1.38c4,2.12,6.38,6.1,10,8.72a93.89,93.89,0,0,0,22.17,11.8c16.15,6.16,32.37,5.71,48.43,0,16.84-6,29.18-17.36,37.48-33.14,4.39-6.81,6.42-14.45,7.46-22.33.52-4,2.43-8,.72-12.09C146.84,64.87,144.29,57,143.05,49Z"/><path class="cls-8" d="M103.15,37.07l5-2c.58,1.86-.76,2.77-2,3.6-7.67,5.43-14.92,11.4-22.51,16.93-6.76,4.94-9.44,4.71-15.29-1.34-.58-.6-1.18-1.17-1.73-1.79-2.69-4-6.29-7.27-9.74-10.61-1.17-1.14-2.71-2.53-4.35-1.5s-.87,3.12-.32,4.57A141.39,141.39,0,0,0,66.82,72.64c.94,1.41,3,2.54,1.29,4.68C59.6,69.08,54.83,58.45,49.52,48.18a85,85,0,0,1-3.38-8.77,4.35,4.35,0,0,1,2.26-5.85,5.52,5.52,0,0,1,6.48.8,22.78,22.78,0,0,0,3.49,2.78l13.9,15.68c3.53,1.74,6.6.88,9.56-1.47,5.28-4.2,10.6-8.35,16.08-12.3C99.45,37.94,100.85,36.26,103.15,37.07Z"/><path class="cls-9" d="M139.14,108c-12.89,26.2-40.1,40.76-69.67,37.82-5.89-.59-12.28-.77-17.26-5.06,11.87,2.81,23.71,4.22,35.93,1.58,22.75-4.9,39.4-17.59,50.36-38,.47-.86,1.07-1.66,1.61-2.48C141.82,104.25,139.5,106,139.14,108Z"/><path class="cls-10" d="M67.24,52.06c7.93,7.1,8.12,9.23,19.94-.39C93,47,99,42.62,105,38.19a8.64,8.64,0,0,0,3.14-3.1c3.65-2.53,7.32-5,10.94-7.59,2-1.45,4-2.32,6.17-.27a14.75,14.75,0,0,1-4,5c-2.28-2.38-4-.22-5.55.92-10.87,8-21.65,16.21-32.43,24.38-5,3.76-9.45,3.94-13.69-.39-2.69-2.75-6.25-5-7.4-9C65,47.93,65.66,50.6,67.24,52.06Z"/><path class="cls-11" d="M74.18,52c10-9,21.15-16.53,31.77-24.73,3.28-2.53,6.81-4.74,10.22-7.09,2.08,2.75.47,4.81-1.59,6.3-11.24,8.12-22.14,16.69-33.17,25.09C79.29,53.17,76.72,54.16,74.18,52Z"/><path class="cls-12" d="M74.18,52c4.82,1.19,7.91-2.1,11-4.65C94.32,39.86,103.85,33,113.37,26c2.15-1.56,3.15-3.31,2.8-5.88l1.9-1.17c3,1.7,2.14,3.44.27,5.53-3.47,3.88-8.07,6.26-12.06,9.46-1.17.94-2.45,1.69-3.13,3.09C95.5,41.74,88.81,47.72,81.63,53c-3,2.22-6.34,4.06-9.36-.21Z"/><path class="cls-13" d="M67.24,52.06l-5-4c-1.47-1.32-2.92-2.67-4.43-3.94-1-.88-1.91-2.69-3.66-1.22-1.26,1.06-.7,2.35-.14,3.62,5.13,11.66,10.83,23,19.57,32.44a7,7,0,0,1,.74,1.28c-3.37,1.75-4.43-1.31-6.16-3-1.41-4.47-4.86-7.74-7-11.79A213.18,213.18,0,0,1,50.75,44c-.75-1.9-1.25-4.05.8-5.4,1.89-1.24,3.7.11,4.87,1.36C60.13,43.92,65,46.83,67.24,52.06Z"/><path class="cls-14" d="M58.37,37.14A16.56,16.56,0,0,1,55.73,36C50.52,32.43,48,33.3,46.14,39.4c-1.89-3.3-4.62-7.66-1.65-10.32,3.19-2.84,6.42,1.69,9.33,3.51C55.59,33.7,56.87,35.6,58.37,37.14Z"/><path class="cls-15" d="M138,12c4,2.27,3.19,4.75.9,8-2.15,3.06-5.59,5.14-6.69,9-1.8-1.15-2.21-4.08-5-3.9,0-.37,0-.74,0-1.11H129c2.87-1.45,7-2,5.13-6.91Z"/><path class="cls-16" d="M139.14,108q.48-3.06,1-6.12c3.22-9.33,6.24-18.71,6.19-28.74,1.36,1.07,1.24,2.42,1,4-1.15,9.58-2.16,19.18-6.3,28.08A20.68,20.68,0,0,1,139.14,108Z"/><path class="cls-17" d="M134.17,17.08c2.05.18,3.34,1.24,1.83,3.07-1.72,2.09-2.74,6.07-7,3.85C129.91,21.06,132.51,19.41,134.17,17.08Z"/></g></g></svg>