<?xml version="1.0" encoding="utf-8"?>
<svg version="1.1" xmlns="http://www.w3.org/2000/svg" x="0" y="0" viewBox="0 0 80 80" xml:space="preserve">
<style type="text/css">
	.st0{fill:#00548B;}
</style>
<g>
	<path class="st0" d="M73.6,39.2c0-0.2,0-0.1,0-0.2l0-0.1l0-0.2l0-0.3l-0.1-0.7l-0.2-1.4c-0.1-0.9-0.3-1.8-0.5-2.7l-0.3-1.3
		l-0.1-0.7l-0.2-0.6l-0.8-2.6c-0.3-0.8-0.7-1.7-1-2.5c-0.2-0.4-0.3-0.8-0.5-1.2l-0.6-1.2c-0.4-0.8-0.7-1.6-1.2-2.3L66.6,19
		c-2-2.9-4.3-5.5-6.8-7.9c-2.6-2.3-5.4-4.4-8.4-6l-0.6-0.3l-0.6-0.3L49.1,4c-0.8-0.3-1.5-0.7-2.4-1c-0.8-0.3-1.6-0.5-2.4-0.8
		c-0.8-0.3-1.7-0.4-2.5-0.6C40,1.2,38.6,1.2,37,1l-0.3,0l-0.1,0l-0.1,0c0,0-0.3,0-0.2,0l-0.6,0l-1.2,0c-0.8,0-1.6,0-2.4,0.1
		c-6.5,0.6-12.3,3.1-16.8,6.4c-1.1,0.9-2.1,1.8-3.1,2.7c-0.9,1-1.8,1.9-2.6,2.9c-0.4,0.5-0.7,1-1.1,1.5c-0.4,0.5-0.7,1-1,1.5
		c-0.6,1-1.2,2-1.7,3c-2.1,3.9-3.1,7.6-3.8,10.6c-0.1,0.6-0.3,1.2-0.4,1.8c0,0.1,0,0.2-0.1,0.3c-0.1,0.7-0.2,1.3-0.2,1.9
		C1.1,34.2,1,34.7,1,35.2c-0.1,0.5,0,1-0.1,1.4c-0.1,1.6-0.1,2.5-0.1,2.5v0c0,0,0,0.9,0.1,2.5c0,0.4,0,0.9,0.1,1.4
		c0.1,0.5,0.1,1,0.2,1.6c0.1,0.6,0.1,1.2,0.2,1.9c0.1,0.7,0.3,1.4,0.4,2.1C1.9,49,2,49.4,2,49.8c0.1,0.4,0.2,0.8,0.4,1.2
		c0.2,0.8,0.4,1.7,0.8,2.6c0.3,0.9,0.7,1.8,1.1,2.8c0.4,0.9,0.9,1.9,1.4,2.9C5.7,59.5,5.9,59.8,6,60c-0.3-2.1-0.5-4.3-0.5-6.4
		c-0.1-0.3-0.3-0.5-0.5-0.8c-0.5-0.8-0.8-1.6-1.1-2.3c-0.2-0.4-0.3-0.7-0.5-1.1C3.3,49,3.2,48.7,3,48.3c-0.2-0.7-0.4-1.4-0.6-2
		C2.2,45.7,2.2,45,2,44.5c-0.1-0.6-0.2-1.1-0.3-1.6c-0.1-0.5-0.1-0.9-0.1-1.3c-0.1-1.6-0.2-2.4-0.2-2.5c0-0.1,0-0.8,0.1-2.2
		c0-0.1,0-0.2,0-0.2c0-0.4,0-0.9,0.1-1.3c0.1-0.5,0.2-1,0.3-1.6c0.1-0.6,0.2-1.2,0.4-1.8c0.2-0.6,0.4-1.3,0.6-2
		c1-2.8,2.5-6.1,5.2-9.2c0.6-0.8,1.4-1.5,2.1-2.3c0.3-0.4,0.8-0.8,1.2-1.1c0.4-0.4,0.8-0.7,1.2-1.1c0.8-0.7,1.8-1.4,2.7-2.1
		c0.5-0.3,1-0.6,1.5-0.9c0.5-0.3,1-0.6,1.5-0.9c4.2-2.4,9-4.2,14.4-5c0.7-0.1,1.4-0.1,2-0.2l1-0.1l0.5-0.1c0.2,0-0.1,0-0.1,0l0.1,0
		l0.1,0l0.3,0c1.5,0,3.2-0.1,4.5,0.1c0.7,0.1,1.4,0.1,2.1,0.2c0.7,0.1,1.5,0.2,2.2,0.4c0.8,0.1,1.5,0.3,2.2,0.5l1.1,0.3l0.6,0.2
		l0.5,0.2c0.7,0.3,1.4,0.6,2.2,0.8c0.7,0.3,1.4,0.7,2.1,1l1.1,0.5c0.3,0.2,0.7,0.4,1,0.7c0.7,0.5,1.4,0.9,2,1.4
		c2.6,2,4.8,4.4,6.6,7.2c1.1,1.6,1.9,3.4,2.7,5.2c0.5,1.3,1,2.6,1.3,3.9l0.5,2.4l0.1,0.6l0.1,0.6l0.1,1.2c0.1,0.8,0.2,1.6,0.1,2.5
		l0,2.4l-0.3,2.6c-0.1,0.4-0.1,0.9-0.2,1.3L69,44l-0.3,1.1l-0.1,0.6l-0.2,0.6l-0.8,2.3c-0.3,0.8-0.6,1.5-0.9,2.2
		c-0.2,0.4-0.3,0.7-0.5,1.1l-0.6,1c-0.4,0.7-0.7,1.4-1.2,2l-1.3,1.9c-1.9,2.5-4,4.8-6.3,6.6c-0.6,0.5-1.2,0.9-1.8,1.3l-0.9,0.6
		l-1,0.6c-0.7,0.4-1.3,0.8-1.9,1.1c-0.7,0.3-1.3,0.6-2,0.9c-2.7,1-5.4,1.9-8.2,2.2c-1.4,0.3-2.8,0.3-4.1,0.4l-0.3,0l-0.1,0l-0.1,0
		l-0.4,0l-1.1,0l-1.1,0c-0.4,0-0.8,0-1.1-0.1c-0.6-0.1-1.2-0.2-1.9-0.2c-0.3,0-0.6-0.1-0.9-0.1l-1-0.2c-0.6-0.1-1.3-0.3-1.9-0.4
		c-0.3-0.1-0.6-0.2-0.9-0.3c0-0.3,0-0.7,0-1V55.8c1.1,0.4,2.3,0.8,3.7,1.1c1.2,0.3,2.5,0.5,4,0.7c1.5,0.2,3.1,0.3,4.9,0.3
		c3.6,0,6.7-0.6,9.2-1.9c2.5-1.2,4.5-2.8,6.1-4.7c1.5-1.9,2.6-4,3.3-6.3c0.7-2.3,0.9-4.6,0.8-6.8c-0.2-3.6-1-6.6-2.6-9
		c-1.6-2.4-3.6-4.2-6-5.6c-2.4-1.4-4.9-2.4-7.6-2.9c-2.7-0.5-5.3-0.7-7.8-0.6c-2.5,0.2-4.8,0.5-7,0.9c-2.1,0.4-4,1.2-5.6,2.2
		c-1.6,1-2.8,2.4-3.7,4.1c-0.9,1.7-1.3,3.8-1.3,6.3l-0.1,31l0,0l0,2.3c0,0.6,0,1.1,0.1,1.6c0,0.1,0,0.2,0,0.3c0.1,0.5,0.2,1,0.3,1.4
		c0,0,0,0.1,0,0.1c0.3,0.9,0.7,1.7,1.3,2.4c0,0,0,0,0,0c0,0,0,0,0,0c0.3,0.3,0.6,0.6,0.9,0.9c0,0,0.1,0,0.1,0.1
		c0.9,0.7,1.8,1.2,2.9,1.6c0.1,0,0.2,0.1,0.3,0.1c0.1,0,0.2,0.1,0.3,0.1c0.1,0,0.1,0,0.2,0.1c0.7,0.2,1.4,0.4,2.1,0.6c0,0,0,0,0.1,0
		c0.3,0.1,0.5,0.1,0.7,0.1c0.3,0.1,0.5,0.1,0.8,0.2l2.1,0.4c0.4,0.1,0.8,0.2,1.2,0.2c0.8,0.1,1.7,0.3,2.5,0.4
		c0.4,0.1,0.8,0.1,1.2,0.1l1.1,0.1l1.1,0.1l0.6,0l0.3,0l0.1,0l0.2,0l0.3,0c1.7-0.1,3.4-0.1,5.1-0.4c3.4-0.4,6.8-1.6,10.1-3
		c0.8-0.4,1.6-0.8,2.4-1.2c0.8-0.4,1.5-0.9,2.3-1.4l1.1-0.7c0.4-0.3,0.7-0.6,1.1-0.8c0.7-0.6,1.5-1.1,2.1-1.7
		c2.7-2.4,5.1-5.3,7.1-8.4c2-3.2,3.4-6.6,4.3-10.2l0.5-2.7l0.1-0.7l0.1-0.7l0.1-1.1l0-0.3l0.1-1.4c0.1-0.5,0-0.9,0-1.3L73.6,39.2z
		 M26.2,34c0-0.7,0.1-1.4,0.4-2c0.2-0.7,0.7-1.3,1.3-1.9c0.6-0.6,1.4-1,2.4-1.4c1-0.4,2.3-0.7,3.9-0.8c1.7-0.2,3.4-0.1,5.1,0.2
		c1.7,0.3,3.2,0.8,4.5,1.6c1.3,0.8,2.3,1.9,3.2,3.3c0.8,1.4,1.3,3.2,1.4,5.3c0.2,4-0.8,7-3,9c-2.1,2-4.9,3-8.2,3
		c-1.5,0-2.9-0.1-4.2-0.4c-1.3-0.3-2.4-0.5-3.4-0.8c-1.2-0.3-2.2-0.7-3.2-1.1V34z"/>
</g>
</svg>
