<?xml version="1.0" encoding="UTF-8"?>
<svg width="254px" height="77px" viewBox="0 0 254 77" version="1.1" xmlns="http://www.w3.org/2000/svg" xmlns:xlink="http://www.w3.org/1999/xlink">
    <!-- Generator: Sketch 53.2 (72643) - https://sketchapp.com -->
    <title>logo_white</title>
    <desc>Created with Sketch.</desc>
    <g id="Page-1" stroke="none" stroke-width="1" fill="none" fill-rule="evenodd">
        <g id="logo_white" fill="#FFFFFF" fill-rule="nonzero">
            <g id="Group">
                <path d="M73.6,38.2 C73.6,38 73.6,38.1 73.6,38 L73.6,37.9 L73.6,37.7 L73.6,37.4 L73.5,36.7 L73.3,35.3 C73.2,34.4 73,33.5 72.8,32.6 L72.5,31.3 L72.4,30.6 L72.2,30 L71.4,27.4 C71.1,26.6 70.7,25.7 70.4,24.9 C70.2,24.5 70.1,24.1 69.9,23.7 L69.3,22.5 C68.9,21.7 68.6,20.9 68.1,20.2 L66.6,18 C64.6,15.1 62.3,12.5 59.8,10.1 C57.2,7.8 54.4,5.7 51.4,4.1 L50.8,3.8 L50.2,3.5 L49.1,3 C48.3,2.7 47.6,2.3 46.7,2 C45.9,1.7 45.1,1.5 44.3,1.2 C43.5,0.9 42.6,0.8 41.8,0.6 C40,0.2 38.6,0.2 37,0 L36.7,0 L36.6,0 L36.5,0 C36.5,0 36.2,0 36.3,0 L35.7,0 L34.5,0 C33.7,0 32.9,0 32.1,0.1 C25.6,0.7 19.8,3.2 15.3,6.5 C14.2,7.4 13.2,8.3 12.2,9.2 C11.3,10.2 10.4,11.1 9.6,12.1 C9.2,12.6 8.9,13.1 8.5,13.6 C8.1,14.1 7.8,14.6 7.5,15.1 C6.9,16.1 6.3,17.1 5.8,18.1 C3.7,22 2.7,25.7 2,28.7 C1.9,29.3 1.7,29.9 1.6,30.5 C1.6,30.6 1.6,30.7 1.5,30.8 C1.4,31.5 1.3,32.1 1.3,32.7 C1.1,33.2 1,33.7 1,34.2 C0.9,34.7 1,35.2 0.9,35.6 C0.8,37.2 0.8,38.1 0.8,38.1 L0.8,38.1 C0.8,38.1 0.8,39 0.9,40.6 C0.9,41 0.9,41.5 1,42 C1.1,42.5 1.1,43 1.2,43.6 C1.3,44.2 1.3,44.8 1.4,45.5 C1.5,46.2 1.7,46.9 1.8,47.6 C1.9,48 2,48.4 2,48.8 C2.1,49.2 2.2,49.6 2.4,50 C2.6,50.8 2.8,51.7 3.2,52.6 C3.5,53.5 3.9,54.4 4.3,55.4 C4.7,56.3 5.2,57.3 5.7,58.3 C5.7,58.5 5.9,58.8 6,59 C5.7,56.9 5.5,54.7 5.5,52.6 C5.4,52.3 5.2,52.1 5,51.8 C4.5,51 4.2,50.2 3.9,49.5 C3.7,49.1 3.6,48.8 3.4,48.4 C3.3,48 3.2,47.7 3,47.3 C2.8,46.6 2.6,45.9 2.4,45.3 C2.2,44.7 2.2,44 2,43.5 C1.9,42.9 1.8,42.4 1.7,41.9 C1.6,41.4 1.6,41 1.6,40.6 C1.5,39 1.4,38.2 1.4,38.1 C1.4,38 1.4,37.3 1.5,35.9 C1.5,35.8 1.5,35.7 1.5,35.7 C1.5,35.3 1.5,34.8 1.6,34.4 C1.7,33.9 1.8,33.4 1.9,32.8 C2,32.2 2.1,31.6 2.3,31 C2.5,30.4 2.7,29.7 2.9,29 C3.9,26.2 5.4,22.9 8.1,19.8 C8.7,19 9.5,18.3 10.2,17.5 C10.5,17.1 11,16.7 11.4,16.4 C11.8,16 12.2,15.7 12.6,15.3 C13.4,14.6 14.4,13.9 15.3,13.2 C15.8,12.9 16.3,12.6 16.8,12.3 C17.3,12 17.8,11.7 18.3,11.4 C22.5,9 27.3,7.2 32.7,6.4 C33.4,6.3 34.1,6.3 34.7,6.2 L35.7,6.1 L36.2,6 C36.4,6 36.1,6 36.1,6 L36.2,6 L36.3,6 L36.6,6 C38.1,6 39.8,5.9 41.1,6.1 C41.8,6.2 42.5,6.2 43.2,6.3 C43.9,6.4 44.7,6.5 45.4,6.7 C46.2,6.8 46.9,7 47.6,7.2 L48.7,7.5 L49.3,7.7 L49.8,7.9 C50.5,8.2 51.2,8.5 52,8.7 C52.7,9 53.4,9.4 54.1,9.7 L55.2,10.2 C55.5,10.4 55.9,10.6 56.2,10.9 C56.9,11.4 57.6,11.8 58.2,12.3 C60.8,14.3 63,16.7 64.8,19.5 C65.9,21.1 66.7,22.9 67.5,24.7 C68,26 68.5,27.3 68.8,28.6 L69.3,31 L69.4,31.6 L69.5,32.2 L69.6,33.4 C69.7,34.2 69.8,35 69.7,35.9 L69.7,38.3 L69.4,40.9 C69.3,41.3 69.3,41.8 69.2,42.2 L69,43 L68.7,44.1 L68.6,44.7 L68.4,45.3 L67.6,47.6 C67.3,48.4 67,49.1 66.7,49.8 C66.5,50.2 66.4,50.5 66.2,50.9 L65.6,51.9 C65.2,52.6 64.9,53.3 64.4,53.9 L63.1,55.8 C61.2,58.3 59.1,60.6 56.8,62.4 C56.2,62.9 55.6,63.3 55,63.7 L54.1,64.3 L53.1,64.9 C52.4,65.3 51.8,65.7 51.2,66 C50.5,66.3 49.9,66.6 49.2,66.9 C46.5,67.9 43.8,68.8 41,69.1 C39.6,69.4 38.2,69.4 36.9,69.5 L36.6,69.5 L36.5,69.5 L36.4,69.5 L36,69.5 L34.9,69.5 L33.8,69.5 C33.4,69.5 33,69.5 32.7,69.4 C32.1,69.3 31.5,69.2 30.8,69.2 C30.5,69.2 30.2,69.1 29.9,69.1 L28.9,68.9 C28.3,68.8 27.6,68.6 27,68.5 C26.7,68.4 26.4,68.3 26.1,68.2 C26.1,67.9 26.1,67.5 26.1,67.2 L26.1,54.8 C27.2,55.2 28.4,55.6 29.8,55.9 C31,56.2 32.3,56.4 33.8,56.6 C35.3,56.8 36.9,56.9 38.7,56.9 C42.3,56.9 45.4,56.3 47.9,55 C50.4,53.8 52.4,52.2 54,50.3 C55.5,48.4 56.6,46.3 57.3,44 C58,41.7 58.2,39.4 58.1,37.2 C57.9,33.6 57.1,30.6 55.5,28.2 C53.9,25.8 51.9,24 49.5,22.6 C47.1,21.2 44.6,20.2 41.9,19.7 C39.2,19.2 36.6,19 34.1,19.1 C31.6,19.3 29.3,19.6 27.1,20 C25,20.4 23.1,21.2 21.5,22.2 C19.9,23.2 18.7,24.6 17.8,26.3 C16.9,28 16.5,30.1 16.5,32.6 L16.4,63.6 L16.4,63.6 L16.4,65.9 C16.4,66.5 16.4,67 16.5,67.5 C16.5,67.6 16.5,67.7 16.5,67.8 C16.6,68.3 16.7,68.8 16.8,69.2 C16.8,69.2 16.8,69.3 16.8,69.3 C17.1,70.2 17.5,71 18.1,71.7 C18.1,71.7 18.1,71.7 18.1,71.7 C18.1,71.7 18.1,71.7 18.1,71.7 C18.4,72 18.7,72.3 19,72.6 C19,72.6 19.1,72.6 19.1,72.7 C20,73.4 20.9,73.9 22,74.3 C22.1,74.3 22.2,74.4 22.3,74.4 C22.4,74.4 22.5,74.5 22.6,74.5 C22.7,74.5 22.7,74.5 22.8,74.6 C23.5,74.8 24.2,75 24.9,75.2 C24.9,75.2 24.9,75.2 25,75.2 C25.3,75.3 25.5,75.3 25.7,75.3 C26,75.4 26.2,75.4 26.5,75.5 L28.6,75.9 C29,76 29.4,76.1 29.8,76.1 C30.6,76.2 31.5,76.4 32.3,76.5 C32.7,76.6 33.1,76.6 33.5,76.6 L34.6,76.7 L35.7,76.8 L36.3,76.8 L36.6,76.8 L36.7,76.8 L36.9,76.8 L37.2,76.8 C38.9,76.7 40.6,76.7 42.3,76.4 C45.7,76 49.1,74.8 52.4,73.4 C53.2,73 54,72.6 54.8,72.2 C55.6,71.8 56.3,71.3 57.1,70.8 L58.2,70.1 C58.6,69.8 58.9,69.5 59.3,69.3 C60,68.7 60.8,68.2 61.4,67.6 C64.1,65.2 66.5,62.3 68.5,59.2 C70.5,56 71.9,52.6 72.8,49 L73.3,46.3 L73.4,45.6 L73.5,44.9 L73.6,43.8 L73.6,43.5 L73.7,42.1 C73.8,41.6 73.7,41.2 73.7,40.8 L73.6,38.2 Z M26.2,33 C26.2,32.3 26.3,31.6 26.6,31 C26.8,30.3 27.3,29.7 27.9,29.1 C28.5,28.5 29.3,28.1 30.3,27.7 C31.3,27.3 32.6,27 34.2,26.9 C35.9,26.7 37.6,26.8 39.3,27.1 C41,27.4 42.5,27.9 43.8,28.7 C45.1,29.5 46.1,30.6 47,32 C47.8,33.4 48.3,35.2 48.4,37.3 C48.6,41.3 47.6,44.3 45.4,46.3 C43.3,48.3 40.5,49.3 37.2,49.3 C35.7,49.3 34.3,49.2 33,48.9 C31.7,48.6 30.6,48.4 29.6,48.1 C28.4,47.8 27.4,47.4 26.4,47 L26.4,33 L26.2,33 Z" id="Shape"></path>
                <path d="M101.5,32.2 C99.2,31.2 96.7,30.7 93.9,30.7 C93.6,30.7 93.3,30.7 93.1,30.7 C92.9,30.7 92.6,30.7 92.3,30.8 C89.4,31 86.8,31.7 84.3,32.8 C81.9,34 79.8,35.5 78,37.4 L78,37.7 L78.2,38.1 C78.7,39.1 79.4,39.7 80.1,40.2 C80.9,40.6 81.7,40.7 82.5,40.7 C83.3,40.7 84.1,40.6 84.9,40.4 C85.7,40.2 86.6,39.9 87.4,39.6 C88.2,39.3 89.1,39 89.9,38.8 C90.7,38.6 91.6,38.5 92.4,38.4 L93.4,38.4 C94.3,38.4 95.1,38.5 95.8,38.6 C96.5,38.8 97.1,39 97.7,39.3 C99.3,40.1 100.4,41.5 101.2,43.3 C101.8,44.7 102.2,46.4 102.4,48.2 C99.6,47.3 96.6,46.9 93.5,46.9 C91.3,46.9 89.2,47.2 87.1,47.7 C85.1,48.2 83.2,49 81.6,50 C79.9,51.1 78.6,52.5 77.7,54 C76.7,55.6 76.3,57.5 76.3,59.8 L76.3,60.3 C76.4,62.8 77,64.9 78.1,66.7 C78.9,68.1 79.8,69.2 81,70.1 C82.1,71 83.4,71.7 84.8,72.2 C86.1,72.8 87.5,73.2 88.8,73.4 C90.2,73.6 91.5,73.7 92.8,73.7 C93.2,73.7 93.6,73.7 94,73.7 C94.4,73.7 94.7,73.7 95.1,73.6 C97.8,73.3 100.2,72.6 102.4,71.3 C104.6,70.1 106.5,68.5 108,66.6 C111.2,62.7 112.8,57.6 112.8,51.4 L112.8,50.7 C112.7,44.6 110.9,39.8 107.5,36 C105.8,34.5 103.8,33.2 101.5,32.2 Z M102.1,58.2 C101.9,59.4 101.4,60.6 100.8,61.7 C100.5,62.3 100.1,62.9 99.7,63.4 C99.3,63.9 98.8,64.3 98.2,64.7 C96.9,65.6 95.5,66.1 93.8,66.1 C93.6,66.2 93.2,66.2 92.7,66.2 C91.1,66.2 89.9,66 89,65.6 C88.1,65.2 87.4,64.7 86.9,64.1 C86.4,63.5 86,62.9 85.8,62.2 C85.6,61.5 85.5,60.9 85.5,60.3 C85.5,59.9 85.5,59.7 85.6,59.5 C85.7,59 85.8,58.5 86,58 C86.2,57.6 86.4,57.1 86.7,56.8 C87.5,55.8 88.6,55 90.1,54.5 C90.8,54.3 91.5,54.1 92.3,54 C93.1,53.9 93.9,53.9 94.7,53.9 C95.7,53.9 96.7,54 97.7,54.1 C98.7,54.2 99.6,54.3 100.4,54.5 C100.8,54.6 101.2,54.7 101.5,54.8 C101.8,54.9 102.1,54.9 102.3,55 C102.4,55 102.4,55 102.4,55 C102.4,55 102.5,55 102.5,55 C102.4,55.9 102.3,57 102.1,58.2 Z" id="Shape"></path>
                <path d="M137.9,31.8 C135.6,31.8 133.3,32.1 131,32.6 C128.7,33.1 126.6,34.1 124.8,35.5 C122.9,36.9 121.4,38.9 120.3,41.5 C119.1,44 118.5,47.3 118.5,51.3 L118.5,63 C118.5,66.6 119.5,69.2 121.5,70.7 C123.5,72.2 126.3,73 130,73 C129.9,72.6 129.9,72.1 129.8,71.4 C129.7,70.7 129.7,69.9 129.7,68.7 C129.7,67.6 129.7,66.1 129.7,64.3 L129.7,51.3 C129.7,48.8 130,46.8 130.5,45.3 C131,43.8 131.7,42.6 132.4,41.8 C133.2,41 134.1,40.4 135.1,40.1 C136.1,39.8 137.1,39.5 138.1,39.4 C139.7,39.2 140.8,38.7 141.5,37.9 C142.2,37.1 142.6,36.2 142.7,35.3 C142.9,34.2 142.8,33.1 142.5,31.8 L137.9,31.8 Z" id="Path"></path>
                <path d="M164.5,56.7 C165.9,56.7 167.6,56.5 169.6,56.2 C171.5,55.9 173.4,55.3 175.1,54.4 C176.8,53.5 178.3,52.3 179.6,50.8 C180.9,49.3 181.5,47.3 181.5,44.8 C181.5,42.3 180.9,40.1 179.8,38.3 C178.7,36.5 177.2,35 175.5,33.9 C173.8,32.8 171.9,32 169.9,31.5 C167.9,31 166,30.7 164.4,30.7 C161.3,30.7 158.6,31.3 156.1,32.4 C153.6,33.5 151.5,35.1 149.8,37 C148.1,39 146.7,41.3 145.8,43.9 C144.9,46.5 144.4,49.3 144.4,52.3 C144.4,55.3 144.9,58.1 146,60.7 C147,63.3 148.5,65.6 150.3,67.5 C152.2,69.5 154.3,71 156.7,72.1 C159.1,73.2 161.7,73.8 164.5,73.8 C167.7,73.8 170.6,73.2 173.4,72 C176.2,70.8 178.5,69.1 180.5,66.9 L180.8,66.6 L180.5,66.3 C179.8,65.3 179.2,64.6 178.4,64.1 C177.7,63.7 177,63.5 176.2,63.5 C175.4,63.5 174.6,63.7 173.8,64 C173,64.3 172.1,64.6 171.2,64.9 C170.3,65.2 169.3,65.5 168.1,65.7 C167,65.9 165.8,66.1 164.5,66.1 C163.8,66.1 163,66 162.1,65.7 C161.2,65.4 160.3,64.9 159.4,64.1 C158.5,63.3 157.7,62.3 157,60.9 C156.3,59.6 155.8,57.8 155.6,55.6 C156.2,55.7 157.3,55.9 159,56.2 C160.3,56.5 162.3,56.7 164.5,56.7 Z M156.9,43.4 C157.6,42.1 158.4,41.1 159.3,40.3 C160.2,39.6 161.1,39.1 162,38.8 C162.9,38.5 163.7,38.4 164.3,38.3 C166.8,38.2 168.6,38.7 169.9,39.7 C171.2,40.8 171.8,42.1 171.7,43.6 C171.6,45.6 170.8,47 169.5,47.8 C168.2,48.6 166.6,49.1 164.8,49.3 C163,49.5 161.3,49.4 159.5,49.2 C157.7,48.9 156.4,48.6 155.4,48.3 C155.7,46.4 156.2,44.8 156.9,43.4 Z" id="Shape"></path>
                <path d="M212,65 C211.5,65.2 210.9,65.4 210.3,65.5 C209.2,65.8 208.1,66 207.1,66 C204.5,66 202.4,65 200.8,62.9 C200,61.8 199.4,60.4 199,58.7 C198.6,57 198.3,54.9 198.3,52.4 L198.4,39.6 L201.8,39.6 C204.6,39.6 206.7,38.8 208.2,37.2 C209.7,35.6 210.4,33.4 210.4,30.7 L198.3,30.7 L198.2,25 C198.2,23.2 198.2,21.7 198.2,20.6 C198.2,19.5 198.3,18.6 198.3,17.9 C198.4,17.2 198.4,16.6 198.5,16.2 C194.8,16.2 192.1,17 190.1,18.5 C188.2,20.1 187.2,22.6 187.2,26.2 L187.1,52.2 C187.1,55.8 187.6,58.9 188.5,61.6 C189.4,64.3 190.7,66.5 192.2,68.3 C193.8,70.1 195.5,71.4 197.4,72.3 C199.3,73.2 201.3,73.6 203.2,73.6 C205.6,73.6 207.6,73 209.3,71.8 C210.1,71.2 210.8,70.5 211.3,69.6 C211.8,68.7 212,67.8 212,66.7 C212,66.3 211.9,65.8 211.8,65.4 C212.1,65.4 212,65.2 212,65 Z" id="Path"></path>
                <path d="M253.5,51.5 C253.4,48.8 252.9,46.3 252,43.9 C250.9,41.3 249.5,39 247.6,37.1 C245.8,35.1 243.7,33.6 241.3,32.4 C240.5,32 239.6,31.7 238.7,31.4 C238.7,31.4 238.6,31.4 238.6,31.4 C238.3,31.3 237.9,31.2 237.5,31.1 C236.9,31 236.2,30.8 235.5,30.8 C234.8,30.7 234.1,30.7 233.4,30.7 C231.5,30.7 229.7,30.9 228.1,31.4 C227.1,31.7 226.1,32 225.1,32.4 C222.6,33.5 220.5,35.1 218.8,37.1 C217.1,39 215.7,41.3 214.8,43.9 C214,46.1 213.6,48.5 213.5,51.1 C213.5,51.5 213.5,51.9 213.5,52.3 C213.5,52.9 213.5,53.5 213.6,54.1 C213.7,55.8 214,57.5 214.5,59.1 C214.7,59.6 214.8,60.1 215,60.7 C215,60.7 215,60.7 215,60.7 C215.2,61.1 215.4,61.5 215.6,61.9 C216.6,64 217.8,65.8 219.3,67.5 C220.4,68.7 221.6,69.7 222.9,70.6 C223.8,71.2 224.7,71.7 225.6,72.2 C225.6,72.2 225.6,72.2 225.7,72.2 C228,73.3 230.4,73.8 233,73.9 C233.2,73.9 233.3,73.9 233.5,73.9 C236.6,73.9 239.3,73.3 241.8,72.2 C244.3,71.1 246.4,69.5 248.1,67.5 C249.8,65.6 251.2,63.3 252.1,60.7 C252.3,60 252.6,59.3 252.7,58.6 C253.1,57.2 253.3,55.8 253.4,54.4 C253.5,53.7 253.5,53 253.5,52.3 C253.6,52.1 253.5,51.8 253.5,51.5 Z M241.6,59.4 C240.9,61.2 240.1,62.6 239.2,63.6 C238.2,64.6 237.2,65.3 236.2,65.7 C235.1,66.1 234.2,66.2 233.5,66.2 C232.7,66.2 231.8,66 230.8,65.7 C229.7,65.3 228.7,64.7 227.8,63.6 C226.8,62.6 226,61.2 225.4,59.4 C224.7,57.6 224.4,55.3 224.4,52.4 C224.4,49.5 224.7,47.2 225.4,45.3 C226.1,43.5 226.9,42.1 227.8,41.1 C228.8,40.1 229.8,39.4 230.8,39.1 C231.8,38.7 232.8,38.6 233.5,38.6 C234.3,38.6 235.2,38.8 236.2,39.1 C237.2,39.5 238.3,40.1 239.2,41.1 C240.2,42.1 241,43.5 241.6,45.3 C242.3,47.1 242.6,49.5 242.6,52.4 C242.6,55.2 242.3,57.6 241.6,59.4 Z" id="Shape"></path>
            </g>
        </g>
    </g>
</svg>